<svg xmlns="http://www.w3.org/2000/svg" viewBox="0 0 17.64 20"><defs><style>.cls-1{fill:#fff;fill-rule:evenodd;}</style></defs><title>Calendar_icon</title><g id="Calque_2" data-name="Calque 2"><g id="Calque_1-2" data-name="Calque 1"><path class="cls-1" d="M7.13,1.54a.7.7,0,0,0-.58.62L7.86,2A.69.69,0,0,0,7.13,1.54ZM9.78,9.08l1,6.15.81-.14-.7-4,2.19-.33.69,4,1.14-.19.18,1.15L4.38,17.48,4.2,16.33l1.24-.21L5,13.61l2-.33.4,2.5,1.12-.18-1-6.17Zm3.43-6.45L11,3l.3,1.95L4.17,6.14l-.31-2-1.7.28a.76.76,0,0,0-.63.86l2,12.58a.76.76,0,0,0,.87.62l11-1.77a.76.76,0,0,0,.63-.87l-2-12.57A.76.76,0,0,0,13.21,2.63ZM9.39,1.71,13,1.13A2.29,2.29,0,0,1,15.58,3l2,12.57a2.28,2.28,0,0,1-1.89,2.61L4.67,20a2.27,2.27,0,0,1-2.61-1.88L0,5.51a2.27,2.27,0,0,1,1.89-2.6L5,2.41a2.22,2.22,0,0,1,4.37-.7Z"/></g></g></svg>