<?xml version="1.0"?>
<svg xmlns="http://www.w3.org/2000/svg" xmlns:xlink="http://www.w3.org/1999/xlink" version="1.1" id="Capa_1" x="0px" y="0px" viewBox="0 0 512 512" style="enable-background:new 0 0 512 512;" xml:space="preserve" width="512px" height="512px"><g><g>
	<g>
		<path d="M266.583,114.401h-72.311c-11.115,0-20.157,9.043-20.157,20.157v263.041h40.315v-85.158    c0-8.349,6.769-15.118,15.118-15.118h37.035c50.431,0,91.461-41.03,91.461-91.462S317.014,114.401,266.583,114.401z     M266.583,257.008h-37.035c-8.349,0-15.118-6.769-15.118-15.118v-72.056c0-8.349,6.769-15.118,15.118-15.118h37.035    c28.201,0,51.146,22.944,51.146,51.147C317.728,234.064,294.784,257.008,266.583,257.008z" data-original="#000000" class="active-path" data-old_color="#000000" fill="#079EE2"/>
	</g>
</g><g>
	<g>
		<path d="M429.447,0H82.553C37.033,0,0,37.033,0,82.553v346.894C0,474.967,37.033,512,82.553,512h346.894    c45.52,0,82.553-37.033,82.553-82.553V82.553C512,37.033,474.967,0,429.447,0z M266.583,327.559h-21.917v85.159    c0,8.349-6.769,15.118-15.118,15.118h-70.551c-8.349,0-15.118-6.769-15.118-15.118v-278.16c0-27.787,22.607-50.394,50.394-50.394    h72.311c67.104,0,121.697,54.594,121.697,121.697C388.279,272.966,333.687,327.559,266.583,327.559z" data-original="#000000" class="active-path" data-old_color="#000000" fill="#079EE2"/>
	</g>
</g><g>
	<g>
		<path d="M266.583,184.952h-21.917v41.82h21.917c11.529,0,20.909-9.38,20.909-20.909    C287.492,194.331,278.112,184.952,266.583,184.952z" data-original="#000000" class="active-path" data-old_color="#000000" fill="#079EE2"/>
	</g>
</g></g> </svg>
