<?xml version="1.0" encoding="UTF-8"?>
<svg width="22px" height="22px" viewBox="0 0 22 22" version="1.1" xmlns="http://www.w3.org/2000/svg" xmlns:xlink="http://www.w3.org/1999/xlink">
    <!-- Generator: Sketch 64 (93537) - https://sketch.com -->
    <title>MaAmbulance_icon@3x</title>
    <desc>Created with Sketch.</desc>
    <g id="Symbols" stroke="none" stroke-width="1" fill="none" fill-rule="evenodd">
        <g id="✱-/-Header-/-Desktop" transform="translate(-997.000000, -95.000000)" fill="#079EE2" fill-rule="nonzero">
            <path d="M1005.72218,95.0897216 C1007.05549,94.7297283 1008.44529,95.4853943 1008.88335,96.777084 L1008.93129,96.9346226 L1009.51599,99.1017587 L1011.10261,97.514977 C1011.98028,96.6384125 1013.34609,96.5094216 1014.37198,97.1648169 L1014.52322,97.2690137 L1014.66225,97.3794753 L1014.80199,97.5089124 L1015.96544,98.6604227 C1016.94152,99.6380984 1016.98458,101.209447 1016.09179,102.231987 L1015.97003,102.362155 L1014.3818,103.957719 L1016.55409,104.539194 C1017.77165,104.859369 1018.57162,106.006249 1018.49493,107.246214 L1018.47899,107.415808 L1018.45329,107.579036 L1018.41496,107.746918 L1017.99205,109.316132 C1017.64003,110.655275 1016.29444,111.480406 1014.95079,111.215651 L1014.78963,111.178612 L1012.62014,110.60498 L1013.20594,112.772851 C1013.53282,113.983011 1012.94037,115.24901 1011.83603,115.80093 L1011.6823,115.871694 L1011.52246,115.933171 L1011.36139,115.98257 L1009.77774,116.410261 C1008.44412,116.770336 1007.05425,116.014441 1006.61685,114.722736 L1006.569,114.565196 L1005.9829,112.397258 L1004.39728,113.985205 C1003.51945,114.86143 1002.15399,114.990425 1001.12805,114.335296 L1000.97681,114.231141 L1000.83777,114.120723 L1000.69786,113.991199 L999.534375,112.83946 C998.558445,111.861659 998.515478,110.290377 999.408119,109.267999 L999.529856,109.137852 L1001.11514,107.540321 L998.945778,106.960775 C997.728424,106.64059 996.928541,105.493791 997.005048,104.253857 L997.020956,104.084266 L997.046635,103.921041 L997.084949,103.753065 L997.507877,102.183801 C997.859951,100.844715 999.205875,100.019533 1000.54923,100.284464 L1000.71035,100.321525 L1002.87778,100.89306 L1002.29387,98.7267581 C1001.9675,97.5165621 1002.55986,96.2508231 1003.66397,95.6990184 L1003.81767,95.6282698 L1003.97748,95.5668052 L1004.13852,95.5174127 L1005.72218,95.0897216 Z M1006.34736,96.903439 L1006.25059,96.9217209 L1004.62978,97.3593681 C1004.30899,97.4459645 1004.09746,97.7710915 1004.13319,98.0946849 L1004.15146,98.1914768 L1005.65147,103.747431 L1000.09007,102.278385 C999.762206,102.192117 999.418635,102.366427 999.287589,102.669878 L999.254879,102.764656 L998.822026,104.37045 C998.735853,104.698145 998.910139,105.041793 999.212087,105.172454 L999.306368,105.205034 L1004.8696,106.691751 L1000.80748,110.778597 C1000.5737,111.011977 1000.55077,111.390905 1000.73745,111.653622 L1000.80743,111.736531 L1001.99822,112.91508 C1002.23161,113.14887 1002.6106,113.171505 1002.87581,112.982337 L1002.95965,112.911435 L1007.02683,108.842371 L1008.5269,114.398573 C1008.61343,114.719405 1008.93842,114.930906 1009.26195,114.895129 L1009.35873,114.87684 L1010.97955,114.439193 C1011.30047,114.352559 1011.51201,114.027455 1011.47617,113.703873 L1011.45786,113.607084 L1009.95783,108.051066 L1015.51925,109.520313 C1015.84726,109.60655 1016.1907,109.432282 1016.32173,109.128721 L1016.35444,109.033905 L1016.78735,107.42792 C1016.87357,107.100307 1016.69933,106.756768 1016.39727,106.626109 L1016.30295,106.593527 L1010.73972,105.106809 L1014.80203,101.019776 C1015.03573,100.786483 1015.05862,100.407626 1014.87194,100.144974 L1014.80195,100.062086 L1013.61089,98.8834642 C1013.37765,98.6496793 1012.99877,98.6270197 1012.73367,98.8162138 L1012.64987,98.8871259 L1008.5826,102.95627 L1007.08293,97.400285 C1007.00487,97.1114278 1006.73358,96.9111176 1006.44424,96.8999998 L1006.34736,96.903439 Z" id="MaAmbulance_icon"></path>
        </g>
    </g>
</svg>